<svg xmlns="http://www.w3.org/2000/svg" xmlns:xlink="http://www.w3.org/1999/xlink" width="263.993" height="399.823" viewBox="0 0 263.993 399.823"><defs><linearGradient id="a" x1="-0.625" y1="-0.036" x2="1.157" y2="0.684" gradientUnits="objectBoundingBox"><stop offset="0" stop-color="#292929"/><stop offset="0.903" stop-color="#292929" stop-opacity="0"/><stop offset="1" stop-color="#292929" stop-opacity="0"/></linearGradient><linearGradient id="b" x1="-0.928" y1="0.005" x2="0.854" y2="0.723" xlink:href="#a"/><linearGradient id="c" x1="-0.019" y1="0.198" x2="0.937" y2="0.755" gradientUnits="objectBoundingBox"><stop offset="0" stop-color="#292929"/><stop offset="1" stop-color="#292929" stop-opacity="0"/></linearGradient><linearGradient id="d" x1="0.309" y1="0.273" x2="0.661" y2="0.691" xlink:href="#c"/><linearGradient id="e" x1="0.657" y1="0.006" x2="0.352" y2="0.966" xlink:href="#c"/><linearGradient id="f" x1="0.331" y1="0.284" x2="0.496" y2="0.495" xlink:href="#c"/><linearGradient id="g" x1="0.407" y1="0.34" x2="0.578" y2="0.635" xlink:href="#c"/><linearGradient id="h" x1="0.388" y1="0.323" x2="0.594" y2="0.649" xlink:href="#c"/><linearGradient id="i" x1="0.752" y1="-0.125" x2="0.372" y2="0.817" xlink:href="#c"/></defs><g transform="translate(-0.7 -0.238)"><path d="M.038,101.093c3.239-1.867,5.563-1.905,6.973-.152,1.448,1.753,2.134,4.725,2.134,8.879V132.3a39.752,39.752,0,0,0,1.181,10.631,10.368,10.368,0,0,0,3.963,6.211c1.791,1.257,4.23,1.562,7.316.991,3.01-.533,6.783-2.134,11.279-4.725l2.134-1.257V126.433L32.313,128c-3.239,1.867-5.373,2.1-6.44.762q-1.715-2-1.715-8.231V100.712c0-5.182-.5-9.26-1.524-12.232a8.352,8.352,0,0,0-6.021-5.754A37.759,37.759,0,0,0,22.634,70a60.328,60.328,0,0,0,1.486-13.985V36.2a25.934,25.934,0,0,1,1.715-10.212c1.067-2.591,3.239-4.839,6.44-6.707l2.705-1.562V0L32.847,1.257A56.571,56.571,0,0,0,21.568,9.564a38.055,38.055,0,0,0-7.316,9.45A36.645,36.645,0,0,0,10.288,29.8a57.255,57.255,0,0,0-1.181,12V64.283A29.411,29.411,0,0,1,6.973,75.639,16.176,16.176,0,0,1,0,83.527Z" transform="translate(114.33 13.599)" opacity="0.4" fill="url(#a)"/><path d="M35.019,49.332c-3.239,1.867-5.563,1.905-6.973.152-1.448-1.753-2.134-4.725-2.134-8.879V18.124A39.753,39.753,0,0,0,24.73,7.492a10.7,10.7,0,0,0-3.887-6.249C18.976.024,16.538-.281,13.527.252c-3.087.572-6.9,2.172-11.393,4.8L0,6.311V24.03l2.705-1.562c3.239-1.867,5.411-2.134,6.554-.8,1.067,1.372,1.6,4.115,1.6,8.307V49.789c0,5.182.5,9.26,1.524,12.232A8.352,8.352,0,0,0,18.4,67.775,37.759,37.759,0,0,0,12.384,80.5,60.328,60.328,0,0,0,10.9,94.486V114.3a27.377,27.377,0,0,1-1.6,10.174,14.625,14.625,0,0,1-6.554,6.745L.038,132.782V150.5l2.134-1.257A59.969,59.969,0,0,0,13.565,140.9a40.421,40.421,0,0,0,7.316-9.45,38.207,38.207,0,0,0,3.849-10.708,57.255,57.255,0,0,0,1.181-12V86.256A29.411,29.411,0,0,1,28.045,74.9a16.176,16.176,0,0,1,6.973-7.888Z" transform="translate(160.97 0.238)" opacity="0.4" fill="url(#b)"/><path d="M80.44,0,0,46.45V239.3l80.44-46.45Z" transform="translate(22.915 5.139)" opacity="0.15" fill="url(#c)"/><path d="M63.979,0,0,36.924V54.643L63.979,17.719Z" transform="translate(54.466 30.403)" fill="#292929" opacity="0.5"/><path d="M60.663,0,0,34.981V88.595L60.663,53.576Z" transform="translate(32.175 112.443)" opacity="0.2" fill="url(#d)"/><path d="M61.578,0,0,35.552v6.059L61.578,6.059Z" transform="translate(31.87 71.328)" fill="#292929" opacity="0.15"/><path d="M53.233,0,0,30.713v6.059L53.233,6.059Z" transform="translate(40.253 83.522)" fill="#292929" opacity="0.15"/><path d="M45.193,0,0,26.064v6.059L45.193,6.059Z" transform="translate(48.293 95.563)" fill="#292929" opacity="0.15"/><path d="M80.44,0,0,46.45V72.286L80.44,25.873Z" transform="translate(22.915 5.139)" opacity="0.2" fill="url(#e)"/><path d="M0,10.622c0,3.925,2.286,5.754,5.106,4.115s5.106-6.1,5.106-10.022S7.926-1.038,5.106.6,0,6.735,0,10.622Z" transform="translate(83.236 19.209)" fill="#292929" opacity="0.2"/><path d="M247.607,0,0,142.894.038,335.859,247.646,192.965Z" transform="translate(0.7 64.202)" opacity="0.15" fill="url(#f)"/><path d="M63.979,0,0,36.924V54.643L63.979,17.719Z" transform="translate(200.714 111.757)" fill="#292929" opacity="0.5"/><path d="M142.018,0,0,82v6.059l142.056-82Z" transform="translate(89.561 160.456)" fill="#292929" opacity="0.15"/><path d="M122.584,0,0,70.761V76.82L122.546,6.1Z" transform="translate(109.033 172.65)" fill="#292929" opacity="0.15"/><path d="M104.294,0,0,60.206v6.059L104.294,6.059Z" transform="translate(127.324 184.729)" fill="#292929" opacity="0.15"/><path d="M124.909,0,0,72.1v53.614l124.909-72.1Z" transform="translate(10.798 261.549)" opacity="0.2" fill="url(#g)"/><path d="M18.824,0,0,10.86V28.579l18.824-10.86Z" transform="translate(107.509 277.591)" fill="#292929" opacity="0.15"/><path d="M18.824,0,0,10.86V28.579l18.824-10.86Z" transform="translate(84.455 291.766)" fill="#292929" opacity="0.15"/><path d="M18.824,0,0,10.86V28.579l18.824-10.86Z" transform="translate(61.287 304.913)" fill="#292929" opacity="0.15"/><path d="M18.824,0,0,10.86V28.579l18.824-10.86Z" transform="translate(38.081 318.897)" fill="#292929" opacity="0.15"/><path d="M103.989,0,0,60.016V113.63L103.989,53.614Z" transform="translate(150.873 190.749)" opacity="0.2" fill="url(#h)"/><path d="M82.612,0,0,47.67v6.059L82.612,6.059Z" transform="translate(161.771 210.526)" fill="#292929" opacity="0.15"/><path d="M66.189,0,0,38.181V44.24L66.151,6.059Z" transform="translate(178.194 222.72)" fill="#292929" opacity="0.15"/><path d="M247.3,0,0,142.742v26.14L247.265,26.14Z" transform="translate(1.005 64.202)" opacity="0.2" fill="url(#i)"/><path d="M0,10.622c0,3.925,2.286,5.754,5.106,4.115s5.106-6.1,5.106-10.022S7.926-1.038,5.106.6,0,6.735,0,10.622Z" transform="translate(221.367 82.197)" fill="#292929" opacity="0.2"/></g></svg>