<svg xmlns="http://www.w3.org/2000/svg" width="100%" height="100%" viewBox="0 0 2454.945 286.805" preserveAspectRatio="xMinYMin meet">
  <g id="Group_115" data-name="Group 115" transform="translate(-601.535 -337.6)">
    <path id="Path_115" data-name="Path 115" d="M601.535,618.215V358.233h91.2q40.438,0,60.456,18.57t20.015,49.52a69.094,69.094,0,0,1-7.016,29.713q-7.022,14.856-24.76,24.347,26.4,10.32,35.283,28.061t8.873,33.84q0,33.02-20.634,54.472t-63.138,21.459Zm85.423-229.032H634.549V471.3h54.884q27.237,0,38.172-9.7t10.936-31.156q0-21.452-13.411-31.362T686.958,389.183Zm9.078,111.833H634.549v86.248h62.725q29.3,0,41.474-10.935t12.173-31.982q0-21.047-12.586-32.188T696.036,501.016Z" fill="currentColor"/>
    <path id="Path_116" data-name="Path 116" d="M832.215,618.215V449.021h32.6v35.9q9.072-21.047,24.966-31.569a63.892,63.892,0,0,1,36.109-10.524,40.628,40.628,0,0,1,7.428.619c2.2.413,4.127.761,5.778,1.032v37.553q-6.607-1.237-13.412-2.064a112.12,112.12,0,0,0-13.412-.825q-25.176,0-36.315,15.682T864.816,546v72.217Z" fill="currentColor"/>
    <path id="Path_117" data-name="Path 117" d="M958.076,533.617q0-21.867,7.428-39t18.983-28.474a81.207,81.207,0,0,1,26-17.332,75.019,75.019,0,0,1,28.887-5.984q17.739,0,34.871,9.7t27.03,29.093v-32.6h33.013V618.215h-33.013v-32.6q-9.9,19.4-27.03,29.093t-34.871,9.7a75.019,75.019,0,0,1-28.887-5.984,81,81,0,0,1-26-17.332q-11.558-11.346-18.983-28.474T958.076,533.617Zm87.074-59.836q-24.354,0-38.791,17.332t-14.444,42.5q0,25.176,14.444,42.506t38.791,17.332q23.522,0,40.235-15.682t16.713-44.156q0-28.473-16.507-44.155T1045.15,473.781Z" fill="currentColor"/>
    <path id="Path_118" data-name="Path 118" d="M1196.185,618.215V449.021H1229.2v37.552q9.072-22.284,26.2-33.013a68.311,68.311,0,0,1,36.934-10.73q27.642,0,44.568,19.6t16.92,55.5V618.215h-33.014V526.189q0-24.759-9.491-38.584t-30.538-13.824q-22.284,0-36.934,16.094T1229.2,538.157v80.058Z" fill="currentColor"/>
    <path id="Path_119" data-name="Path 119" d="M1401.279,533.617q0-21.867,7.222-39t18.364-28.474a77.3,77.3,0,0,1,25.379-17.332,72.581,72.581,0,0,1,28.268-5.984q18.153,0,35.9,9.7t28.061,29.506V337.6h33.014V618.215h-33.014V585.2q-10.32,19.808-28.061,29.506t-35.9,9.7a72.581,72.581,0,0,1-28.268-5.984,77.1,77.1,0,0,1-25.379-17.332q-11.142-11.346-18.364-28.474T1401.279,533.617Zm87.073-59.836q-24.354,0-38.791,17.332t-14.443,42.5q0,25.176,14.443,42.506t38.791,17.332q23.93,0,40.442-15.682t16.507-44.156q0-28.473-16.714-44.155T1488.352,473.781Z" fill="currentColor"/>
    <path id="Path_120" data-name="Path 120" d="M1714.494,624.405q-20.225,0-36.522-6.809a76.616,76.616,0,0,1-27.442-18.983,86.942,86.942,0,0,1-17.332-28.887,103.136,103.136,0,0,1-6.19-36.109,99.666,99.666,0,0,1,6.6-36.933A84.846,84.846,0,0,1,1651.974,468a83.007,83.007,0,0,1,27.649-18.57,88.971,88.971,0,0,1,34.458-6.6q36.307,0,60.043,23.729t23.729,62.932q0,3.307-.207,6.6t-.618,6.19H1661.259q2.061,24.354,16.094,38.79,14.025,14.451,37.141,14.444,17.331,0,29.918-7.841t16.3-20.633h33.838q-7.428,26-28.267,41.679T1714.494,624.405Zm-.413-152.688q-20.225,0-33.839,10.936T1662.5,515.46h101.1q-1.653-21.047-15.268-32.4T1714.081,471.717Z" fill="currentColor"/>
    <path id="Path_121" data-name="Path 121" d="M1848.2,618.215V449.021h33.014v37.552q9.072-22.284,26.2-33.013a68.311,68.311,0,0,1,36.934-10.73q27.642,0,44.568,19.6t16.92,55.5V618.215h-33.014V526.189q0-24.759-9.491-38.584t-30.538-13.824q-22.284,0-36.934,16.094t-14.649,48.282v80.058Z" fill="currentColor"/>
    <path id="Path_122" data-name="Path 122" d="M2066.909,618.215V358.233h91.2q40.439,0,60.457,18.57t20.014,49.52a69.093,69.093,0,0,1-7.016,29.713q-7.021,14.856-24.76,24.347,26.4,10.32,35.283,28.061t8.873,33.84q0,33.02-20.634,54.472t-63.138,21.459Zm85.423-229.032h-52.409V471.3h54.885q27.235,0,38.171-9.7t10.936-31.156q0-21.452-13.411-31.362T2152.332,389.183Zm9.078,111.833h-61.487v86.248h62.725q29.3,0,41.474-10.935t12.173-31.982q0-21.047-12.586-32.188T2161.41,501.016Z" fill="currentColor"/>
    <path id="Path_123" data-name="Path 123" d="M2327.714,449.021v101.1q0,20.638,8.46,31.981t27.443,11.349q20.63,0,34.045-16.1t13.411-48.282V449.021h33.014V618.215h-33.014V581.9q-8.666,21.877-24.76,32.188a63.775,63.775,0,0,1-35.077,10.317q-25.176,0-40.854-17.332t-15.681-48.7V449.021Z" fill="currentColor"/>
    <path id="Path_124" data-name="Path 124" d="M2505.983,618.215V449.021H2539V618.215Z" fill="currentColor"/>
    <path id="Path_125" data-name="Path 125" d="M2600.9,618.215V337.6h33.013V618.215Z" fill="currentColor"/>
    <path id="Path_126" data-name="Path 126" d="M2684.253,533.617q0-21.867,7.222-39t18.363-28.474a77.326,77.326,0,0,1,25.38-17.332,72.585,72.585,0,0,1,28.268-5.984q18.155,0,35.9,9.7t28.062,29.506V337.6h33.013V618.215H2827.45V585.2q-10.32,19.808-28.062,29.506t-35.9,9.7a72.585,72.585,0,0,1-28.268-5.984,77.129,77.129,0,0,1-25.38-17.332q-11.142-11.346-18.363-28.474T2684.253,533.617Zm87.073-59.836q-24.352,0-38.79,17.332t-14.444,42.5q0,25.176,14.444,42.506t38.79,17.332q23.93,0,40.442-15.682t16.507-44.156q0-28.473-16.713-44.155T2771.326,473.781Z" fill="currentColor"/>
    <path id="Path_127" data-name="Path 127" d="M3050.7,499.366h-33.426q-.417-14.025-10.317-21.665t-27.649-7.634q-15.272,0-24.347,5.364t-9.079,14.856a16.77,16.77,0,0,0,7.634,14.443,57.146,57.146,0,0,0,19.189,8.254l41.268,9.9a74.72,74.72,0,0,1,29.918,14.237q12.583,10.117,12.587,30.744,0,23.523-18.983,40.029t-52.409,16.507q-32.188,0-54.473-16.919t-22.7-44.156h33.427q1.644,17.332,14.031,25.585t30.949,8.254q17.739,0,26.824-7.015t9.079-16.92A16.414,16.414,0,0,0,3014.8,559q-7.428-5.154-18.983-8.046l-35.489-8.666a81.186,81.186,0,0,1-32.189-15.476q-14.449-11.344-14.443-33.632,0-22.69,17.539-36.521t48.488-13.825q31.773,0,50.758,14.65T3050.7,499.366Z" fill="currentColor"/>
    <rect id="Rectangle_197" data-name="Rectangle 197" width="39.642" height="39.642" transform="translate(2502.669 373.739)" fill="currentColor"/>
  </g>
</svg>
