<svg xmlns="http://www.w3.org/2000/svg" xmlns:xlink="http://www.w3.org/1999/xlink" width="323.875" height="399.224" viewBox="0 0 323.875 399.224"><defs><linearGradient id="a" x1="-0.451" y1="0.031" x2="1.6" y2="1.01" gradientUnits="objectBoundingBox"><stop offset="0" stop-color="#292929"/><stop offset="1" stop-color="#292929" stop-opacity="0"/></linearGradient><linearGradient id="b" x1="-0.451" y1="0.031" x2="1.599" y2="1.01" xlink:href="#a"/><linearGradient id="c" x1="-0.137" y1="0.244" x2="3.03" y2="1.031" gradientUnits="objectBoundingBox"><stop offset="0" stop-color="#292929" stop-opacity="0"/><stop offset="1" stop-color="#292929"/></linearGradient><linearGradient id="d" x1="0.307" y1="0.203" x2="0.613" y2="0.755" xlink:href="#a"/><linearGradient id="e" x1="0.571" y1="0.015" x2="0.441" y2="0.97" xlink:href="#a"/><linearGradient id="f" x1="0.218" y1="0.313" x2="0.734" y2="0.656" xlink:href="#a"/><linearGradient id="g" x1="0.387" y1="0.322" x2="0.613" y2="0.678" xlink:href="#a"/><linearGradient id="h" x1="0.387" y1="0.322" x2="0.613" y2="0.678" xlink:href="#a"/></defs><g transform="translate(-0.2 -0.9)"><path d="M21.481,36.256C14.747,44.674,7.268,53.914,2.022,60.374-3.812,42.834,3.98,18.324,12.672,0A355.87,355.87,0,0,0,21.481,36.256Z" transform="translate(128.519 161.858)" fill="#292929" opacity="0.5"/><path d="M8.849,0C17.5,8.3,25.254,23.805,19.42,48.041,14.173,47.61,6.734,47.023,0,46.4,3.837,29.169,6.734,13.782,8.849,0Z" transform="translate(182.184 133.198)" fill="#292929" opacity="0.5"/><path d="M36.126,207.942C84.48,22.122,44.7,6.343,29.665,0,14.631,23.727-25.149,85.432,23.283,215.342Z" transform="translate(136.309 11.589)" opacity="0.2" fill="url(#a)"/><path d="M36.126,207.942C84.519,22.161,44.739,6.382,29.665,0,14.631,23.727-25.149,85.432,23.283,215.342Z" transform="translate(122.057 0.9)" opacity="0.1" fill="url(#b)"/><path d="M23.283,215.342C-25.149,85.432,14.631,23.727,29.665,0V211.662Z" transform="translate(136.309 11.589)" opacity="0.15" fill="url(#c)"/><path d="M0,30.821c0,11.315,6.656,16.64,14.878,11.9S29.756,24.948,29.756,13.633,23.1-3.007,14.878,1.73,0,19.506,0,30.821Z" transform="translate(151.527 46.193)" fill="#292929" opacity="0.1"/><path d="M77.523,119.139c-8.066,17.736-20.086,33.006-33.515,40.758C19.733,173.914.039,158.1,0,124.582,0,91.066,19.694,52.5,43.969,38.484c7.987-4.62,15.465-5.99,21.926-4.581,3.406-5.56,5.051-12.607,6.5-18.793C74.078,7.984,75.487,1.915,79.011.388c4.033-1.762,5.834,2.7,8.379,8.888a69.214,69.214,0,0,0,5.834,11.9,38.714,38.714,0,0,1,8.809-7.126c12.96-7.478,23.766-1.018,26.311,14.408a55.375,55.375,0,0,1,5.325-3.6c20.79-11.981,37.626,1.605,37.626,30.422,0,28.778-16.836,61.823-37.587,73.8-20.164,11.628-36.647-.861-37.587-27.916-3.8,7.048-8.849,12.96-14.447,16.17A21.155,21.155,0,0,1,77.523,119.139Z" transform="translate(88.569 235.118)" opacity="0.1" fill="url(#d)"/><path d="M106.066,0,.039,61.2,0,116.441,96.63,60.648l9.358,3.054Z" transform="translate(9.323 140.794)" opacity="0.3" fill="url(#e)"/><path d="M40.014,15V0L0,23.1v15Z" transform="translate(0.2 196.705)" fill="#292929" opacity="0.5"/><path d="M23.218,0,0,13.43v4.855L23.218,4.894Z" transform="translate(64.881 169.963)" fill="#292929" opacity="0.1"/><path d="M41.933,0,0,24.2v4.855l41.933-24.2Z" transform="translate(46.166 179.673)" fill="#292929" opacity="0.1"/><path d="M54.227,0,0,31.322v4.855L54.227,4.855Z" transform="translate(33.872 189.383)" fill="#292929" opacity="0.15"/><path d="M0,12.409c0,4.542,2.7,6.7,6.03,4.777s6.03-7.165,6.03-11.707S9.358-1.217,6.03.7,0,7.867,0,12.409Z" transform="translate(93.815 159.317)" fill="#292929" opacity="0.5"/><path d="M.039,61.157,106.027,0l-.039,55.245L9.358,111,0,124.859Z" transform="translate(206.772 1.605)" opacity="0.3" fill="url(#f)"/><path d="M40.014,15V0L0,23.1v15Z" transform="translate(284.06 8.143)" fill="#292929" opacity="0.5"/><path d="M0,13.39,23.218,0V4.855L0,18.245Z" transform="translate(234.062 47.101)" fill="#292929" opacity="0.15"/><path d="M0,25.841,44.752,0V4.855L0,30.7Z" transform="translate(234.022 44.36)" fill="#292929" opacity="0.15"/><path d="M0,31.322,54.227,0V4.855L0,36.177Z" transform="translate(234.022 48.588)" fill="#292929" opacity="0.15"/><path d="M12.059,5.462c0,4.542-2.7,9.788-6.03,11.707S0,16.934,0,12.392,2.7,2.6,6.03.685C9.4-1.194,12.1.92,12.059,5.462Z" transform="translate(216.247 63.369)" fill="#292929" opacity="0.5"/><path d="M0,36.53,63.311,0V32.967L0,69.5Z" transform="translate(220.906 85.197)" opacity="0.2" fill="url(#g)"/><path d="M21.691,0,0,12.529v3.954L21.691,3.954Z" transform="translate(246.316 102.463)" fill="#292929" opacity="0.15"/><path d="M40.563,0,0,23.414v3.994L40.563,3.994Z" transform="translate(227.406 110.411)" fill="#292929" opacity="0.15"/><path d="M0,7.421c0,2.7,1.605,3.994,3.6,2.858S7.2,6.011,7.2,3.271C7.2.569,5.6-.723,3.6.412,1.605,1.587,0,4.719,0,7.421Z" transform="translate(271.335 96.217)" fill="#292929" opacity="0.5"/><path d="M0,36.53,63.311,0V32.967L0,69.536Z" transform="translate(32.854 110.098)" opacity="0.2" fill="url(#h)"/><path d="M21.691,0,0,12.529v3.954L21.691,3.954Z" transform="translate(58.264 127.404)" fill="#292929" opacity="0.15"/><path d="M40.563,0,0,23.414v3.994L40.563,3.994Z" transform="translate(39.392 135.352)" fill="#292929" opacity="0.15"/><path d="M0,7.421c0,2.7,1.605,3.994,3.6,2.858S7.2,6.011,7.2,3.271C7.2.569,5.6-.723,3.6.412S0,4.719,0,7.421Z" transform="translate(83.283 121.158)" fill="#292929" opacity="0.5"/></g></svg>