<svg xmlns="http://www.w3.org/2000/svg" xmlns:xlink="http://www.w3.org/1999/xlink" width="256.472" height="399.796" viewBox="0 0 256.472 399.796"><defs><linearGradient id="a" x1="0.4" y1="0.119" x2="0.626" y2="0.976" gradientUnits="objectBoundingBox"><stop offset="0" stop-color="#292929"/><stop offset="1" stop-color="#292929" stop-opacity="0"/></linearGradient><linearGradient id="b" x1="-0.563" y1="0.176" x2="1.491" y2="0.801" xlink:href="#a"/><linearGradient id="c" x1="1.314" y1="0.849" x2="0.016" y2="0.086" xlink:href="#a"/><linearGradient id="d" x1="-2.648" y1="0.156" x2="3.649" y2="0.845" xlink:href="#a"/><linearGradient id="e" x1="-0.618" y1="-0.216" x2="1.079" y2="0.884" xlink:href="#a"/><linearGradient id="f" x1="-0.186" y1="0.5" x2="0.944" y2="0.5" xlink:href="#a"/><linearGradient id="g" x1="2.773" y1="0.834" x2="-1.776" y2="0.165" xlink:href="#a"/><linearGradient id="h" x1="-0.107" y1="0.067" x2="0.781" y2="0.7" gradientUnits="objectBoundingBox"><stop offset="0" stop-color="#292929"/><stop offset="1" stop-color="#2f2f2f" stop-opacity="0.031"/><stop offset="1" stop-color="#292929" stop-opacity="0"/></linearGradient><linearGradient id="i" x1="0.387" y1="0.322" x2="0.613" y2="0.678" xlink:href="#a"/><linearGradient id="j" x1="0.387" y1="0.322" x2="0.613" y2="0.678" xlink:href="#a"/></defs><g transform="translate(0 -0.408)"><path d="M0,55.908C0,76.49,12.055,86.235,26.882,77.666,41.751,69.1,53.764,45.45,53.764,24.868S41.709-5.458,26.882,3.11C12.013,11.679-.042,35.327,0,55.908Z" transform="translate(80.94 187.527)" opacity="0.2" fill="url(#a)"/><path d="M26.924,77.666C12.055,86.235.042,76.49,0,55.908c0-20.582,12.055-44.23,26.882-52.8C41.751-5.458,53.764,4.286,53.764,24.868,53.806,45.45,41.751,69.1,26.924,77.666Z" transform="translate(93.793 195.928)" fill="#292929" opacity="0.4"/><path d="M28.814.669A10.448,10.448,0,0,0,24.068,8.9v81.15L0,103.955v83.713c0,3.024,2.142,4.242,4.746,2.73a10.448,10.448,0,0,0,4.746-8.233v-72.75l24.068-13.9V3.357C33.6.375,31.461-.885,28.814.669Z" transform="translate(128.446 0.408)" opacity="0.3" fill="url(#b)"/><path d="M28.856,98.349c-2.646,1.512-4.746.294-4.746-2.73V34.8L0,48.7V8.882A10.561,10.561,0,0,1,4.746.649C7.393-.863,9.493.355,9.493,3.379V32.236l24.068-13.9V90.116A10.4,10.4,0,0,1,28.856,98.349Z" transform="translate(115.299 255.22)" opacity="0.3" fill="url(#c)"/><path d="M4.746.649A10.448,10.448,0,0,0,0,8.882V146.947c0,3.024,2.142,4.242,4.746,2.73a10.448,10.448,0,0,0,4.746-8.233V3.379C9.493.355,7.351-.863,4.746.649Z" transform="translate(102.404 59.946)" opacity="0.3" fill="url(#d)"/><path d="M0,22.607c0,8.317,4.872,12.265,10.879,8.779,6.006-3.444,10.879-13.021,10.879-21.338S16.885-2.217,10.879,1.269,0,14.29,0,22.607Z" transform="translate(134.117 323.99)" fill="#292929" opacity="0.5"/><path d="M4.746.649C7.393-.863,9.493.355,9.493,3.379v41l24.068-13.9V80.834a10.561,10.561,0,0,1-4.746,8.233c-2.646,1.512-4.746.294-4.746-2.73v-39.4L0,60.84V8.882A10.448,10.448,0,0,1,4.746.649Z" transform="translate(49.438 129.21)" opacity="0.3" fill="url(#e)"/><path d="M0,22.32c0,8.233,4.83,12.1,10.753,8.695,5.922-3.444,10.753-12.853,10.753-21.086s-4.83-12.1-10.753-8.695S0,14.13,0,22.32Z" transform="translate(43.515 121.988)" fill="#292929" opacity="0.5"/><path d="M0,83.186a10.561,10.561,0,0,1,4.746-8.233l37.383-21.59V22.071L79.26.649c2.646-1.512,4.746-.294,4.746,2.73a10.561,10.561,0,0,1-4.746,8.233L51.622,27.573V58.866L4.788,85.958C2.142,87.47,0,86.21,0,83.186Z" transform="translate(8.107 270.803)" opacity="0.3" fill="url(#f)"/><path d="M4.746,111.16a10.448,10.448,0,0,0,4.746-8.233V3.379C9.493.355,7.351-.863,4.746.649A10.448,10.448,0,0,0,0,8.882V108.43C0,111.412,2.142,112.672,4.746,111.16Z" transform="translate(93.625 288.402)" opacity="0.3" fill="url(#g)"/><path d="M0,22.607c0,8.317,4.872,12.265,10.879,8.779,6.006-3.444,10.879-13.021,10.879-21.338S16.885-2.217,10.879,1.269,0,14.29,0,22.607Z" transform="translate(2.352 334.995)" fill="#292929" opacity="0.5"/><path d="M68.381,0,0,39.483V166.165l68.381-39.483Z" transform="translate(166.627 190.554)" opacity="0.3" fill="url(#h)"/><path d="M40.743,0,0,23.522v5L40.743,5Z" transform="translate(183.429 271.074)" fill="#292929" opacity="0.15"/><path d="M32.3,0,0,18.649v5L32.3,5Z" transform="translate(187.629 283.423)" fill="#292929" opacity="0.15"/><path d="M0,27.47,47.59,0V14.155L0,41.625Z" transform="translate(208.883 278.467)" fill="#292929" opacity="0.5"/><path d="M0,6.931l10.627,8.4,7.141-9.157,9.325,8.065,3.7-2.688L17.053,0,10.081,9.157,2.394,3.444Z" transform="translate(185.991 235.749)" fill="#292929" opacity="0.2"/><path d="M0,12.858c0,4.746,2.772,6.973,6.174,5s6.174-7.393,6.174-12.139-2.772-6.973-6.174-5S0,8.112,0,12.858Z" transform="translate(178.01 229.611)" fill="#292929" opacity="0.5"/><path d="M0,12.858c0,4.746,2.772,6.973,6.174,5s6.174-7.393,6.174-12.139-2.772-6.973-6.174-5S0,8.112,0,12.858Z" transform="translate(209.849 238.768)" fill="#292929" opacity="0.5"/><path d="M0,37.551,65.021,0V33.855L0,71.406Z" transform="translate(0 235.833)" opacity="0.2" fill="url(#i)"/><path d="M19.574,0,0,11.3v4.074l19.574-11.3Z" transform="translate(28.814 253.601)" fill="#292929" opacity="0.15"/><path d="M41.667,0,0,24.026v4.116L41.667,4.116Z" transform="translate(6.679 261.791)" fill="#292929" opacity="0.15"/><path d="M0,7.609c0,2.772,1.638,4.116,3.7,2.94s3.7-4.41,3.7-7.183S5.754-.749,3.7.427,0,4.837,0,7.609Z" transform="translate(51.79 247.21)" fill="#292929" opacity="0.5"/><path d="M0,37.551,65.021,0V33.855L0,71.406Z" transform="translate(166.837 132.295)" opacity="0.2" fill="url(#j)"/><path d="M19.574,0,0,11.3v4.074l19.574-11.3Z" transform="translate(195.652 150.063)" fill="#292929" opacity="0.15"/><path d="M41.667,0,0,24.026v4.116L41.667,4.116Z" transform="translate(173.516 158.253)" fill="#292929" opacity="0.15"/><path d="M0,7.609c0,2.772,1.638,4.116,3.7,2.94s3.7-4.41,3.7-7.183S5.754-.749,3.7.427C1.68,1.6,0,4.8,0,7.609Z" transform="translate(218.627 143.671)" fill="#292929" opacity="0.5"/></g></svg>