<svg xmlns="http://www.w3.org/2000/svg" xmlns:xlink="http://www.w3.org/1999/xlink" width="324.45" height="400" viewBox="0 0 324.45 400">
  <defs>
    <linearGradient id="linear-gradient" x1="-0.453" y1="0.034" x2="1.326" y2="0.753" gradientUnits="objectBoundingBox">
      <stop offset="0" stop-color="#292929"/>
      <stop offset="1" stop-color="#292929" stop-opacity="0"/>
    </linearGradient>
    <linearGradient id="linear-gradient-2" x1="-0.926" y1="0.005" x2="0.853" y2="0.724" xlink:href="#linear-gradient"/>
    <linearGradient id="linear-gradient-5" x1="-0.018" y1="0.198" x2="0.936" y2="0.755" xlink:href="#linear-gradient"/>
    <linearGradient id="linear-gradient-6" x1="0.657" y1="0.005" x2="0.352" y2="0.966" xlink:href="#linear-gradient"/>
    <linearGradient id="linear-gradient-7" x1="-0.018" y1="0.198" x2="0.937" y2="0.755" xlink:href="#linear-gradient"/>
    <linearGradient id="linear-gradient-8" x1="0.657" y1="0.006" x2="0.352" y2="0.966" xlink:href="#linear-gradient"/>
    <linearGradient id="linear-gradient-9" x1="0.218" y1="0.313" x2="0.735" y2="0.656" gradientUnits="objectBoundingBox">
      <stop offset="0" stop-color="#292929"/>
      <stop offset="1" stop-color="#fff" stop-opacity="0"/>
    </linearGradient>
    <linearGradient id="linear-gradient-10" x1="0.25" y1="0.355" x2="0.877" y2="0.716" xlink:href="#linear-gradient-9"/>
  </defs>
  <g id="Illustration" transform="translate(-0.9 -0.963)">
    <path id="Path" d="M.044,177.652q8.469-4.935,12.27-.267c2.534,3.068,3.779,8.269,3.779,15.6v39.523a70.7,70.7,0,0,0,2.089,18.672c1.378,5.113,3.734,8.758,6.98,10.892,3.156,2.178,7.424,2.756,12.848,1.734q7.936-1.467,19.828-8.314l3.779-2.178V222.2l-4.712,2.712c-5.646,3.29-9.425,3.69-11.337,1.289-2-2.312-3.023-7.158-3.023-14.493V176.9c0-9.069-.889-16.227-2.667-21.517A14.922,14.922,0,0,0,29.3,145.242a67.261,67.261,0,0,0,10.581-22.318A103.868,103.868,0,0,0,42.5,98.384V63.574c0-7.335,1.023-13.293,3.023-17.961,1.867-4.579,5.646-8.491,11.337-11.781l4.712-2.712V0L57.795,2.178A99.3,99.3,0,0,0,37.967,16.8,67.827,67.827,0,0,0,25.118,33.388a65.977,65.977,0,0,0-6.98,18.939A102.012,102.012,0,0,0,16.049,73.4v39.523a50.561,50.561,0,0,1-3.779,19.961A28.279,28.279,0,0,1,0,146.754Z" transform="translate(0.9 24.497)" opacity="0.07" fill="url(#linear-gradient)"/>
    <path id="Path-2" data-name="Path" d="M61.574,86.708q-8.469,4.935-12.27.267c-2.534-3.068-3.779-8.269-3.779-15.6V31.848a70.7,70.7,0,0,0-2.09-18.672c-1.378-5.113-3.646-8.8-6.8-10.981C33.343.061,29.075-.517,23.785.461q-8.136,1.534-20.006,8.4L0,11.042v31.12L4.712,39.45c5.646-3.29,9.514-3.734,11.514-1.423,1.867,2.4,2.845,7.247,2.845,14.582V87.42c0,9.069.889,16.227,2.667,21.517a14.922,14.922,0,0,0,10.581,10.136A67.261,67.261,0,0,0,21.74,141.391a103.868,103.868,0,0,0-2.623,24.54v34.81c0,7.335-.934,13.293-2.845,17.872-2,4.668-5.868,8.625-11.514,11.87L.044,233.2v31.12l3.779-2.178a104.038,104.038,0,0,0,20.006-14.671,72.1,72.1,0,0,0,12.848-16.583,67.647,67.647,0,0,0,6.8-18.85,102.325,102.325,0,0,0,2.09-21.073V151.439a50.561,50.561,0,0,1,3.779-19.961,28.278,28.278,0,0,1,12.27-13.871Z" transform="translate(82.746 0.963)" opacity="0.07" fill="url(#linear-gradient-2)"/>
    <path id="Path-3" data-name="Path" d="M.044,177.652q8.469-4.935,12.27-.267c2.534,3.068,3.779,8.269,3.779,15.6v39.523a70.7,70.7,0,0,0,2.089,18.672c1.378,5.113,3.734,8.758,6.98,10.892,3.156,2.178,7.424,2.756,12.848,1.734q7.936-1.467,19.828-8.314l3.779-2.178V222.2l-4.712,2.712c-5.646,3.29-9.425,3.69-11.337,1.289-2-2.312-3.023-7.158-3.023-14.493V176.9c0-9.069-.889-16.227-2.667-21.517A14.922,14.922,0,0,0,29.3,145.242a67.261,67.261,0,0,0,10.581-22.318A103.868,103.868,0,0,0,42.5,98.384V63.574c0-7.335,1.023-13.293,3.023-17.961,1.867-4.579,5.646-8.491,11.337-11.781l4.712-2.712V0L57.795,2.178A100.074,100.074,0,0,0,37.967,16.76,67.827,67.827,0,0,0,25.118,33.343a65.977,65.977,0,0,0-6.98,18.939A102.764,102.764,0,0,0,16.049,73.4v39.523a50.561,50.561,0,0,1-3.779,19.961A28.254,28.254,0,0,1,0,146.754Z" transform="translate(18.683 37.835)" opacity="0.4" fill="url(#linear-gradient)"/>
    <path id="Path-4" data-name="Path" d="M61.574,86.708q-8.469,4.935-12.27.267c-2.534-3.068-3.779-8.269-3.779-15.6V31.848a70.7,70.7,0,0,0-2.09-18.672c-1.378-5.113-3.646-8.8-6.8-10.981C33.343.061,29.075-.517,23.785.461q-8.136,1.534-20.006,8.4L0,11.042v31.12L4.712,39.45c5.646-3.29,9.514-3.734,11.514-1.423,1.867,2.4,2.845,7.247,2.845,14.582V87.42c0,9.069.889,16.227,2.667,21.517a14.922,14.922,0,0,0,10.581,10.136A67.261,67.261,0,0,0,21.74,141.391a103.868,103.868,0,0,0-2.623,24.54v34.81c0,7.335-.934,13.293-2.845,17.872-2,4.668-5.868,8.625-11.514,11.87L.044,233.2v31.12l3.779-2.178a104.038,104.038,0,0,0,20.006-14.671,72.1,72.1,0,0,0,12.848-16.583,67.647,67.647,0,0,0,6.8-18.85,102.325,102.325,0,0,0,2.09-21.073V151.439a50.561,50.561,0,0,1,3.779-19.961,28.278,28.278,0,0,1,12.27-13.871Z" transform="translate(100.529 14.3)" opacity="0.4" fill="url(#linear-gradient-2)"/>
    <path id="Path-5" data-name="Path" d="M75.978,0,0,43.879.044,225.844l75.978-43.879Z" transform="translate(184.82 6.403)" opacity="0.15" fill="url(#linear-gradient-5)"/>
    <path id="Path-6" data-name="Path" d="M60.418,0,0,34.9V51.615l60.418-34.9Z" transform="translate(214.651 34.367)" fill="#292929" opacity="0.5"/>
    <path id="Path-7" data-name="Path" d="M58.061,0,0,33.521V59.573L58.061,26.052Z" transform="translate(193.356 107.099)" fill="#292929" opacity="0.15"/>
    <path id="Path-8" data-name="Path" d="M58.15,0,0,33.565v6.046L58.15,6.046Z" transform="translate(193.312 75.579)" fill="#292929" opacity="0.15"/>
    <path id="Path-9" data-name="Path" d="M50.281,0,0,29.031v6.046L50.281,6.046Z" transform="translate(201.181 87.405)" fill="#292929" opacity="0.15"/>
    <path id="Path-10" data-name="Path" d="M75.978,0,0,43.879V68.287L75.978,24.407Z" transform="translate(184.82 6.403)" opacity="0.2" fill="url(#linear-gradient-6)"/>
    <path id="Path-11" data-name="Path" d="M0,10.015c0,3.69,2.178,5.424,4.846,3.912,2.667-1.556,4.8-5.779,4.8-9.469S7.469-.966,4.8.546C2.134,2.1,0,6.325,0,10.015Z" transform="translate(241.815 19.684)" fill="#292929" opacity="0.2"/>
    <path id="Path-12" data-name="Path" d="M75.978,0,0,43.879.044,225.844l75.978-43.879Z" transform="translate(91.46 175.119)" opacity="0.15" fill="url(#linear-gradient-7)"/>
    <path id="Path-13" data-name="Path" d="M60.418,0,0,34.9V51.615l60.418-34.9Z" transform="translate(78.078 228.068)" fill="#292929" opacity="0.5"/>
    <path id="Path-14" data-name="Path" d="M58.106,0,0,33.565V59.573L58.106,26.008Z" transform="translate(99.951 245.362)" fill="#292929" opacity="0.15"/>
    <path id="Path-15" data-name="Path" d="M58.15,0,0,33.565v6.046L58.15,6.091Z" transform="translate(99.951 282.528)" fill="#292929" opacity="0.15"/>
    <path id="Path-16" data-name="Path" d="M50.281,0,0,29.031v6.046L50.281,6.046Z" transform="translate(107.82 293.465)" fill="#292929" opacity="0.15"/>
    <path id="Path-17" data-name="Path" d="M75.978,0,0,43.879V68.287L75.978,24.407Z" transform="translate(91.46 175.119)" opacity="0.2" fill="url(#linear-gradient-8)"/>
    <path id="Path-18" data-name="Path" d="M0,10.015c0,3.69,2.178,5.424,4.846,3.912,2.667-1.556,4.8-5.779,4.8-9.469S7.469-.966,4.8.546,0,6.325,0,10.015Z" transform="translate(148.454 188.444)" fill="#292929" opacity="0.2"/>
    <path id="Path-19" data-name="Path" d="M0,76.378,132.305,0l-.044,68.953L11.648,138.618,0,155.912Z" transform="translate(180.552 123.949)" opacity="0.3" fill="url(#linear-gradient-9)"/>
    <path id="Path-20" data-name="Path" d="M0,16.716,28.986,0V6.046L0,22.762Z" transform="translate(214.562 180.765)" fill="#292929" opacity="0.15"/>
    <path id="Path-21" data-name="Path" d="M0,41.434,71.8,0V6.046L0,47.481Z" transform="translate(214.562 168.184)" fill="#292929" opacity="0.15"/>
    <path id="Path-22" data-name="Path" d="M0,50.015,86.6,0V6.046L0,56.061Z" transform="translate(214.562 171.74)" fill="#292929" opacity="0.15"/>
    <path id="Path-23" data-name="Path" d="M15.027,6.84c0,5.691-3.379,12.226-7.513,14.626S0,21.2,0,15.509,3.379,3.283,7.513.882,15.027,1.149,15.027,6.84Z" transform="translate(192.423 201.089)" fill="#292929" opacity="0.5"/>
    <path id="Path-24" data-name="Path" d="M14.849,16.049,32.365,5.913V0L14.849,10.136A17.587,17.587,0,0,0,9.558,15.2a17.7,17.7,0,0,0-3.29,10c0,4.179,1.067,6.535,3.068,7.247,1.912.622,4.135-.445,5.513-1.245l7.2-4.179.044-.044a3.366,3.366,0,0,1,2.356-.489c.622.178,1.378.845,1.378,3.156A7.443,7.443,0,0,1,24.5,34.232a7.1,7.1,0,0,1-2.356,2.134l-.089.044L0,49.125v5.913l21.918-12.67A16.872,16.872,0,0,0,27.475,37.3a18.39,18.39,0,0,0,3.468-10.625c0-4.046-1.423-6.135-3.423-6.713-1.867-.533-4.046.267-5.557,1.156L14.8,25.252c-1.023.578-1.823.845-2.312.667-.4-.133-1.111-.711-1.111-3.69a6.756,6.756,0,0,1,1.245-4.09A7.794,7.794,0,0,1,14.849,16.049Z" transform="translate(284.939 59.53)" fill="#292929" opacity="0.15"/>
    <path id="Path-25" data-name="Path" d="M0,13.742c0,5.068,2.979,7.424,6.624,5.335S13.248,11.164,13.248,6.1,10.27-1.329,6.624.761C2.934,2.895,0,8.719,0,13.742Z" transform="translate(312.102 52.323)" fill="#292929" opacity="0.5"/>
    <path id="Path-26" data-name="Path" d="M0,13.761C0,18.829,2.979,21.23,6.624,19.1s6.624-7.913,6.624-12.982S10.27-1.355,6.624.779C2.934,2.913,0,8.737,0,13.761Z" transform="translate(276.981 101.207)" fill="#292929" opacity="0.5"/>
    <path id="Path-27" data-name="Path" d="M18.583.67a10.608,10.608,0,0,0-4.8,8.358v13.56L4.8,27.744A10.608,10.608,0,0,0,0,36.1c0,3.068,2.178,4.312,4.8,2.8l8.98-5.157v13.56c0,3.068,2.178,4.312,4.8,2.8a10.608,10.608,0,0,0,4.8-8.358V28.189l8.98-5.157a10.608,10.608,0,0,0,4.8-8.358c0-3.068-2.178-4.312-4.8-2.8l-8.98,5.157V3.471C23.385.359,21.251-.886,18.583.67Z" transform="translate(211.139 268.877)" opacity="0.2" fill="url(#linear-gradient-10)"/>
  </g>
</svg>
