<svg xmlns="http://www.w3.org/2000/svg" width="34.026" height="49.76" viewBox="0 0 34.026 49.76">
  <g id="mysql" transform="translate(-0.024 0)">
    <path id="Path_1" data-name="Path 1" d="M31.366,38.486a7.576,7.576,0,0,0-4.489.965c-.347.207-.9.207-.949.862a8.219,8.219,0,0,1,.37,1.1,8.1,8.1,0,0,0,1.2,2.1c.486.551.972,1.1,1.481,1.586.9.828,1.921,1.31,2.8,2.138.509.482,1.018,1.1,1.527,1.62.255.275.416.724.741.9v-.1c-.162-.311-.208-.759-.37-1.1-.231-.345-.463-.655-.694-1a14.773,14.773,0,0,0-2.407-3.482c-.74-.759-2.361-1.793-2.661-3.069l-.046-.069a6.928,6.928,0,0,0,1.6-.552c.787-.311,1.5-.241,2.314-.552.37-.138.74-.31,1.111-.483v-.31c-.416-.621-.717-1.448-1.157-2.034a35.624,35.624,0,0,0-3.818-4.241,26.309,26.309,0,0,0-2.407-1.724c-.277-.207-.74-.31-.9-.655a17.033,17.033,0,0,1-.949-2.655c-.671-1.9-1.319-4-1.9-6-.416-1.345-.671-2.69-1.18-3.93A31.216,31.216,0,0,0,11.626,4.906,8.816,8.816,0,0,0,8.663,3.492c-.578-.035-1.157-.1-1.736-.138A10.758,10.758,0,0,1,5.863,2.148C4.544.906,1.142-1.783.17,1.768-.455,4.009,1.1,6.216,1.628,7.354a18.153,18.153,0,0,1,1.18,2.586c.162.586.208,1.207.37,1.827.37,1.517.717,3.206,1.2,4.62a19.644,19.644,0,0,0,.856,2.137c.185.379.509.552.579,1.172a13.639,13.639,0,0,0-.532,2.586,22,22,0,0,0,.671,11.584c.37.862,1.25,2.758,2.43,2.034,1.041-.62.81-2.586,1.111-4.31a3.5,3.5,0,0,1,.162-.965v.069c.324.965.648,1.9.949,2.862a18.389,18.389,0,0,0,3.008,4.62c.556.62,1,1.689,1.69,2.068v-.1h-.046a3.233,3.233,0,0,0-.532-.69,16.635,16.635,0,0,1-1.2-2.068,51.658,51.658,0,0,1-2.592-6.275c-.37-1.069-.694-2.241-1-3.31-.139-.414-.139-1.034-.37-1.241A14.258,14.258,0,0,0,8.455,28.9a28.084,28.084,0,0,0-.648,5.206c-.093.035-.046,0-.093.069-.74-.276-.995-1.414-1.273-2.379a21.891,21.891,0,0,1-.208-9.205c.162-.724.856-3,.579-3.689-.139-.655-.6-1.034-.856-1.551a16.719,16.719,0,0,1-.833-2.207c-.555-1.931-.833-4.068-1.435-6A20.923,20.923,0,0,0,2.531,6.492,18.771,18.771,0,0,1,1.258,3.8a2.269,2.269,0,0,1-.093-1.414c.046-.276.139-.379.324-.448.3-.379,1.157.1,1.458.31A11.053,11.053,0,0,1,5.238,3.975c.324.345.671,1,1.088,1.172h.486c.741.241,1.574.069,2.268.379a13.535,13.535,0,0,1,3.333,2.379A29.438,29.438,0,0,1,19.633,19.7c.278.793.393,1.517.648,2.344.486,1.69,1.088,3.413,1.574,5.068a27.806,27.806,0,0,0,1.643,4.62c.347.724,1.736,1.1,2.36,1.482a13.993,13.993,0,0,1,1.6.965c.787.724,1.574,1.552,2.314,2.344.37.414,1.527,1.276,1.6,1.965Z" transform="translate(0 0)" fill="#00546b"/>
    <path id="Path_2" data-name="Path 2" d="M52.084,43.022a3.983,3.983,0,0,0-1.03.126v.05h.05a8.1,8.1,0,0,0,.8,1.031c.2.4.377.8.578,1.207l.05-.05a1.418,1.418,0,0,0,.528-1.257,5.627,5.627,0,0,1-.3-.528c-.151-.252-.478-.377-.679-.578Z" transform="translate(-44.88 -35.636)" fill="#00546b"/>
  </g>
</svg>
