<svg id="Layer_2" xmlns="http://www.w3.org/2000/svg" width="49.525" height="49.523" viewBox="0 0 49.525 49.523">
  <g id="Group_167" data-name="Group 167">
    <g id="Group_166" data-name="Group 166">
      <path id="Path_160" data-name="Path 160" d="M8.708,48.517A21.246,21.246,0,0,0,20.68,67.634L10.547,39.872A21.161,21.161,0,0,0,8.708,48.517Z" transform="translate(-5.188 -23.756)" fill="#464342"/>
      <path id="Path_161" data-name="Path 161" d="M49.44,28.877a11.184,11.184,0,0,0-1.752-5.858c-1.077-1.75-2.086-3.232-2.086-4.981a3.678,3.678,0,0,1,3.567-3.77c.094,0,.184.012.275.017a21.237,21.237,0,0,0-32.093,4c.5.015.968.025,1.367.025,2.222,0,5.661-.27,5.661-.27a.878.878,0,0,1,.136,1.75s-1.151.135-2.431.2L29.821,43l4.649-13.942L31.16,19.99c-1.144-.067-2.228-.2-2.228-.2a.878.878,0,0,1,.134-1.75s3.508.27,5.6.27c2.221,0,5.661-.27,5.661-.27a.878.878,0,0,1,.136,1.75s-1.153.135-2.431.2L45.7,42.824l2.119-7.08C48.741,32.806,49.44,30.7,49.44,28.877Z" transform="translate(-10.338 -5.188)" fill="#464342"/>
      <path id="Path_162" data-name="Path 162" d="M52.789,65.857l-6.373,18.52a21.252,21.252,0,0,0,13.055-.339,1.867,1.867,0,0,1-.151-.293Z" transform="translate(-27.655 -39.238)" fill="#464342"/>
      <path id="Path_163" data-name="Path 163" d="M95.642,36.046a16.3,16.3,0,0,1,.143,2.184,20.038,20.038,0,0,1-1.615,7.609L87.681,64.6a21.246,21.246,0,0,0,7.961-28.553Z" transform="translate(-52.241 -21.476)" fill="#464342"/>
      <path id="Path_164" data-name="Path 164" d="M24.762,0A24.761,24.761,0,1,0,49.525,24.761,24.79,24.79,0,0,0,24.762,0Zm0,48.388A23.626,23.626,0,1,1,48.387,24.761,23.654,23.654,0,0,1,24.762,48.388Z" fill="#464342"/>
    </g>
  </g>
</svg>
